<?xml version="1.0" encoding="UTF-8"?>
<!DOCTYPE svg PUBLIC "-//W3C//DTD SVG 1.1//EN" "http://www.w3.org/Graphics/SVG/1.1/DTD/svg11.dtd">
<!-- Creator: CorelDRAW 2021 (64-Bit) -->
<svg xmlns="http://www.w3.org/2000/svg" xml:space="preserve" width="42.274mm" height="42.274mm" version="1.1" style="shape-rendering:geometricPrecision; text-rendering:geometricPrecision; image-rendering:optimizeQuality; fill-rule:evenodd; clip-rule:evenodd"
viewBox="0 0 109.71 109.71"
 xmlns:xlink="http://www.w3.org/1999/xlink"
 xmlns:xodm="http://www.corel.com/coreldraw/odm/2003">
 <defs>
  <style type="text/css">
   <![CDATA[
    .fil2 {fill:#3E3E3E;fill-rule:nonzero}
    .fil1 {fill:#59C7F2;fill-rule:nonzero}
    .fil0 {fill:#59C6F2;fill-rule:nonzero;fill-opacity:0.200000}
   ]]>
  </style>
 </defs>
 <g id="Capa_x0020_1">
  <metadata id="CorelCorpID_0Corel-Layer"/>
  <path class="fil0" d="M109.71 54.85c0,-30.29 -24.56,-54.85 -54.85,-54.85 -30.29,0 -54.85,24.56 -54.85,54.85 0,30.29 24.56,54.85 54.85,54.85 30.29,0 54.85,-24.56 54.85,-54.85z"/>
  <path class="fil0" d="M95.98 55.42c0,-22.4 -18.16,-40.56 -40.56,-40.56 -22.4,0 -40.56,18.16 -40.56,40.56 0,22.4 18.16,40.56 40.56,40.56 22.4,0 40.56,-18.16 40.56,-40.56z"/>
  <path class="fil1" d="M35.87 43.46c0,0 0,-0 0,-0l-1.83 0c0,0 0,0 0,0 0,2.77 -2.22,5.02 -4.98,5.06 -0.03,-0 -0.06,-0 -0.09,-0 -0.03,0 -0.06,0 -0.09,0 -2.76,-0.05 -4.98,-2.3 -4.98,-5.06 0,0 0,-0 0,-0l-1.83 0c0,0 0,0 0,0 0,2.56 1.39,4.79 3.46,5.98 -2.07,1.19 -3.46,3.42 -3.46,5.98 0,2.56 1.39,4.79 3.46,5.98 -2.07,1.19 -3.46,3.42 -3.46,5.98 0,0 0,0 0,0l1.83 0c0,0 0,0 0,0 0,-2.77 2.22,-5.02 4.98,-5.06 0.03,0 0.06,0 0.09,0 0.03,0 0.06,-0 0.08,-0 2.76,0.05 4.98,2.3 4.98,5.06 0,0 0,0 0,0l1.83 0c0,0 0,0 0,0 0,-2.56 -1.39,-4.79 -3.46,-5.98 2.07,-1.19 3.46,-3.42 3.46,-5.98 0,-2.56 -1.39,-4.79 -3.46,-5.98 2.07,-1.19 3.46,-3.42 3.46,-5.98zm-1.83 11.96c0,2.77 -2.22,5.02 -4.98,5.06 -0.03,-0 -0.06,-0 -0.08,-0 -0.03,0 -0.06,0 -0.09,0 -2.76,-0.05 -4.98,-2.3 -4.98,-5.06 0,-2.77 2.22,-5.02 4.98,-5.06 0.03,0 0.06,0 0.09,0 0.03,0 0.06,-0 0.09,-0 2.76,0.05 4.98,2.3 4.98,5.06z"/>
  <path class="fil2" d="M44.91 55.45c3.04,0 4.2,1.47 4.2,3.48 0,2.01 -1.16,3.48 -4.2,3.48l-2.77 0 0 4.82 -1.21 0 0 -11.77 3.98 0zm-2.77 1.12l0 4.71 2.77 0c2.23,0 2.99,-0.94 2.99,-2.35 0,-1.43 -0.76,-2.35 -2.99,-2.35l-2.77 0z"/>
  <path class="fil2" d="M57.53 63.16l-5.94 0 0 0.07c0,2.16 1.1,3.06 2.77,3.06 1.1,0 2.03,-0.38 2.63,-0.81l0.43 1c-0.85,0.58 -1.9,0.91 -3.06,0.91 -2.37,0 -3.95,-1.3 -3.95,-4.4l0 -0.58c0,-3.13 1.43,-4.42 3.55,-4.42 2.12,0 3.57,1.29 3.57,4.42l0 0.76 0 0zm-5.94 -0.94l4.76 0 0 -0.11c0,-2.21 -0.98,-3.04 -2.39,-3.04 -1.39,0 -2.37,0.83 -2.37,3.04l0 0.11 0 0z"/>
  <path class="fil2" d="M59.33 54.54l1.14 0 0 10.03c0,1.29 0.47,1.72 1.16,1.72 0.47,0 0.74,-0.13 1.03,-0.33l0.42 1c-0.42,0.27 -0.91,0.42 -1.56,0.42 -1.23,0 -2.19,-0.74 -2.19,-2.83l0 -10.01z"/>
  <path class="fil2" d="M70.79 63.16l-5.94 0 0 0.07c0,2.16 1.1,3.06 2.77,3.06 1.1,0 2.03,-0.38 2.63,-0.81l0.43 1c-0.85,0.58 -1.9,0.91 -3.06,0.91 -2.37,0 -3.95,-1.3 -3.95,-4.4l0 -0.58c0,-3.13 1.43,-4.42 3.55,-4.42 2.12,0 3.57,1.29 3.57,4.42l0 0.76 0 0zm-5.94 -0.94l4.76 0 0 -0.11c0,-2.21 -0.98,-3.04 -2.39,-3.04 -1.39,0 -2.37,0.83 -2.37,3.04l0 0.11 0 0z"/>
  <path class="fil2" d="M72.49 58.7c0.54,-0.33 1.56,-0.72 2.81,-0.72 0.69,0 1.3,0.13 1.79,0.38l-0.49 1.01c-0.34,-0.2 -0.76,-0.31 -1.3,-0.31 -0.74,0 -1.32,0.24 -1.67,0.38l0 7.77 -1.14 0 0 -8.51 0 0z"/>
  <path class="fil2" d="M78.81 54.47c0.43,0 0.76,0.33 0.76,0.78 0,0.42 -0.33,0.76 -0.76,0.76 -0.43,0 -0.78,-0.34 -0.78,-0.76 0,-0.45 0.34,-0.78 0.78,-0.78zm-0.58 3.69l1.14 0 0 9.05 -1.14 0 0 -9.05z"/>
  <path class="fil2" d="M81.67 58.7c0.62,-0.34 1.65,-0.72 3.17,-0.72 2.28,0 3.93,1.27 3.93,4.45l0 4.78 -1.14 0 0 -4.84c0,-2.48 -1.14,-3.31 -2.84,-3.31 -0.92,0 -1.48,0.18 -1.97,0.38l0 7.77 -1.14 0 0 -8.51z"/>
  <polygon class="fil2" points="40.93,43.46 42.02,43.46 44.3,47.31 46.57,43.46 47.66,43.46 47.66,51.1 46.65,51.1 46.65,45.25 44.3,49.28 41.94,45.25 41.94,51.1 40.93,51.1 40.93,43.46 "/>
  <path class="fil2" d="M49.14 43.46l0.96 0 0 1.76 2.35 0 0 0.92 -2.35 0 0 2.95c0,0.76 0.29,1.08 0.75,1.16 0.18,0.02 0.38,0.02 0.56,0 0.46,-0.04 0.86,-0.2 1.14,-0.47 0.11,0.28 0.21,0.55 0.33,0.83 -0.47,0.39 -1.08,0.59 -1.76,0.59 -1.14,0 -1.99,-0.55 -1.99,-2.12l0 -5.63 -0 0z"/>
 </g>
</svg>